<svg xmlns="http://www.w3.org/2000/svg" width="100" height="100" viewBox="0 0 100 100">
  <defs>
    <pattern id="circuit-pattern" width="100" height="100" patternUnits="userSpaceOnUse">
      <rect width="100" height="100" fill="#070e1a"/>
      <!-- Circuit lines -->
      <path d="M10,10 L30,10 L30,30 L50,30 L50,50 L70,50 L70,70 L90,70" stroke="#00FF80" stroke-width="0.5" stroke-opacity="0.2" fill="none"/>
      <path d="M90,10 L70,10 L70,30 L50,30 L50,70 L30,70 L30,90 L10,90" stroke="#00FF80" stroke-width="0.5" stroke-opacity="0.2" fill="none"/>
      
      <!-- Circuit nodes -->
      <circle cx="10" cy="10" r="1.5" fill="#00FF80" fill-opacity="0.3"/>
      <circle cx="30" cy="10" r="1" fill="#00FF80" fill-opacity="0.3"/>
      <circle cx="30" cy="30" r="1" fill="#00FF80" fill-opacity="0.3"/>
      <circle cx="50" cy="30" r="1.5" fill="#00FF80" fill-opacity="0.3"/>
      <circle cx="50" cy="50" r="1" fill="#00FF80" fill-opacity="0.3"/>
      <circle cx="70" cy="50" r="1" fill="#00FF80" fill-opacity="0.3"/>
      <circle cx="70" cy="70" r="1" fill="#00FF80" fill-opacity="0.3"/>
      <circle cx="90" cy="70" r="1.5" fill="#00FF80" fill-opacity="0.3"/>
      <circle cx="90" cy="10" r="1.5" fill="#00FF80" fill-opacity="0.3"/>
      <circle cx="70" cy="10" r="1" fill="#00FF80" fill-opacity="0.3"/>
      <circle cx="50" cy="70" r="1" fill="#00FF80" fill-opacity="0.3"/>
      <circle cx="30" cy="70" r="1" fill="#00FF80" fill-opacity="0.3"/>
      <circle cx="30" cy="90" r="1" fill="#00FF80" fill-opacity="0.3"/>
      <circle cx="10" cy="90" r="1.5" fill="#00FF80" fill-opacity="0.3"/>
    </pattern>
  </defs>
  <rect width="100" height="100" fill="url(#circuit-pattern)"/>
</svg>