<svg width="39" height="23" viewBox="0 0 39 23" fill="none" xmlns="http://www.w3.org/2000/svg">
<g id="frog">
<path id="Vector" d="M17.5223 22.9144C16.0515 22.7968 14.8412 22.6034 12.4794 22.0907C10.5968 21.6789 7.99128 20.6619 6.04978 19.5861C4.97396 18.981 3.23417 17.8379 2.54498 17.2832C1.79695 16.6697 0.721138 15.6107 0.578257 15.3417C0.42697 15.0475 0.426968 14.4928 0.586659 14.1818C0.880827 13.6103 2.15836 12.98 5.01599 11.9966C8.63005 10.7359 9.55458 10.2988 10.4371 9.39951C10.9498 8.87841 11.4204 8.02112 11.5969 7.2815C11.7566 6.59231 11.7566 6.29814 11.5885 5.61735C11.1935 4.00363 9.83193 2.62525 8.21821 2.20501C6.33554 1.70912 4.20912 2.88579 3.17533 5.0038L2.77191 5.81907L2.29283 5.84428L1.81376 5.8695L1.75493 5.56693C1.65407 5.0038 2.17516 3.55818 2.82233 2.60844C3.23417 2.0117 4.03262 1.27208 4.66298 0.89386C6.25149 -0.0474773 8.44514 -0.257596 10.2942 0.364359C11.4709 0.759384 12.3282 1.40655 13.2779 2.62525C14.463 4.13811 15.7321 4.8273 17.951 5.14669C19.0856 5.30638 20.0354 5.30638 21.0523 5.14669C23.0695 4.8189 23.952 4.41547 25.0026 3.31444C26.7172 1.51582 27.087 1.17122 27.5997 0.868646C29.4403 -0.207167 32.0206 -0.291215 33.9873 0.658526C34.5588 0.935885 34.8362 1.146 35.4245 1.73434C36.2398 2.5412 36.6432 3.17996 37.0719 4.2894C37.366 5.05423 37.4333 5.64257 37.2736 5.95355C37.1643 6.14686 36.5592 6.18048 36.3154 6.00397C36.2398 5.94514 36.0297 5.57533 35.8532 5.1803C35.6767 4.78528 35.4077 4.27259 35.2564 4.04566C34.2142 2.53279 32.4492 1.79317 30.8859 2.20501C27.8518 3.00346 26.4146 6.28133 28.0283 8.70191C28.9192 10.0383 29.8101 10.5173 33.9957 11.9714C36.3575 12.7866 37.635 13.375 38.1645 13.8877C38.5091 14.2071 38.5343 14.2659 38.5343 14.6693C38.5343 15.2745 38.4503 15.4342 37.7695 16.157C35.7691 18.2666 31.3566 20.7544 27.8014 21.7798C24.1957 22.822 20.9347 23.1834 17.5223 22.9144ZM16.5978 19.0986C16.7827 18.9053 16.7827 18.8885 16.6482 18.6784C16.4465 18.3674 16.2868 18.3338 16.0431 18.5523C15.7909 18.7961 15.7909 18.9137 16.0263 19.1407C16.2616 19.3592 16.3625 19.3508 16.5978 19.0986ZM23.0359 19.0986C23.2292 18.8969 23.246 18.8633 23.1367 18.7036C22.9266 18.3926 22.7753 18.3422 22.5316 18.4935C22.2542 18.6784 22.2458 18.9978 22.498 19.1743C22.7501 19.3508 22.7921 19.3424 23.0359 19.0986Z" fill="#36C58C"/>
<path id="Vector_2" d="M5.86491 9.73569C5.00762 9.44152 4.4445 8.91202 4.00745 7.98749C3.79733 7.54203 3.78052 7.41596 3.78052 6.44941C3.78052 5.44084 3.78892 5.3736 4.04947 4.83569C4.36885 4.1549 4.90676 3.60859 5.57074 3.2808C6.0246 3.06228 6.10865 3.04547 7.18446 3.04547C8.15101 3.04547 8.36953 3.07069 8.6553 3.21357C8.95787 3.36485 8.99149 3.41528 9.0167 3.71785C9.03351 4.02043 9.0083 4.06245 8.76456 4.18852C8.52082 4.30619 8.10899 4.77686 8.10899 4.93655C8.10899 5.05422 8.49561 5.5585 8.71413 5.71819C8.9999 5.93672 9.27725 5.86108 9.63025 5.48286C9.84878 5.24753 9.97485 5.18869 10.2186 5.18869C10.5128 5.18869 10.5296 5.2055 10.6304 5.56691C10.7733 6.08801 10.6977 7.28989 10.4791 7.86142C10.1261 8.78594 9.37811 9.48354 8.44518 9.7609C7.81482 9.94581 6.43643 9.9374 5.86491 9.73569Z" fill="#36C58C"/>
<path id="Vector_3" d="M30.6253 9.7021C29.7681 9.45836 28.9612 8.78598 28.5494 7.96231C28.3477 7.55047 28.3224 7.38237 28.2888 6.51668C28.2552 5.37363 28.4233 4.71805 28.894 4.12131C29.6 3.23881 30.2892 2.91102 31.5499 2.8606C32.3231 2.83538 32.508 2.85219 32.9871 3.02029C33.525 3.2136 33.5334 3.222 33.5586 3.54979C33.5754 3.86077 33.5586 3.89439 33.2645 4.05408C33.0795 4.14653 32.8778 4.35665 32.777 4.53315C32.6173 4.84413 32.6173 4.85253 32.7602 5.12989C32.8442 5.28958 33.0627 5.4997 33.2476 5.60056L33.5754 5.78547L33.878 5.60896C34.0377 5.50811 34.231 5.33161 34.3066 5.22234C34.3991 5.07946 34.5168 5.02063 34.7101 5.02063C34.9454 5.02063 35.0042 5.06265 35.0799 5.27277C35.2312 5.72663 35.2732 6.47466 35.1723 7.03778C34.9622 8.18083 34.3319 9.03812 33.3401 9.50038C32.8358 9.73572 32.6845 9.76934 31.8945 9.78615C31.365 9.80296 30.8607 9.76934 30.6253 9.7021Z" fill="#36C58C"/>
</g>
</svg>
